<mxfile host="app.diagrams.net" modified="2023-06-23T01:21:45.879Z" agent="Mozilla/5.0 (Windows NT 10.0; Win64; x64) AppleWebKit/537.36 (KHTML, like Gecko) Chrome/114.0.0.0 Safari/537.36" etag="E2_5rBNrKuJd-8W-dp9_" version="21.5.0" type="device">
  <diagram name="PÃ¡gina-1" id="AV6tWnQQNQJE5pCxunog">
    <mxGraphModel dx="2117" dy="1830" grid="1" gridSize="10" guides="1" tooltips="1" connect="1" arrows="1" fold="1" page="1" pageScale="1" pageWidth="827" pageHeight="1169" math="0" shadow="0">
      <root>
        <mxCell id="0" />
        <mxCell id="1" parent="0" />
        <mxCell id="D-RA_q1G5jw-01Rus7TT-1" value="Libros" style="rounded=0;whiteSpace=wrap;html=1;" parent="1" vertex="1">
          <mxGeometry x="350" y="90" width="120" height="60" as="geometry" />
        </mxCell>
        <mxCell id="D-RA_q1G5jw-01Rus7TT-2" value="Clientes" style="rounded=0;whiteSpace=wrap;html=1;" parent="1" vertex="1">
          <mxGeometry x="40" y="320" width="120" height="60" as="geometry" />
        </mxCell>
        <mxCell id="D-RA_q1G5jw-01Rus7TT-3" value="Librerias" style="rounded=0;whiteSpace=wrap;html=1;" parent="1" vertex="1">
          <mxGeometry x="550" y="160" width="120" height="60" as="geometry" />
        </mxCell>
        <mxCell id="D-RA_q1G5jw-01Rus7TT-4" value="Empleados" style="rounded=0;whiteSpace=wrap;html=1;" parent="1" vertex="1">
          <mxGeometry x="550" y="470" width="120" height="60" as="geometry" />
        </mxCell>
        <mxCell id="D-RA_q1G5jw-01Rus7TT-5" value="Editoriales" style="rounded=0;whiteSpace=wrap;html=1;" parent="1" vertex="1">
          <mxGeometry x="350" y="-130" width="120" height="60" as="geometry" />
        </mxCell>
        <mxCell id="D-RA_q1G5jw-01Rus7TT-7" value="" style="endArrow=none;html=1;rounded=0;exitX=0.5;exitY=0;exitDx=0;exitDy=0;" parent="1" source="D-RA_q1G5jw-01Rus7TT-9" target="D-RA_q1G5jw-01Rus7TT-5" edge="1">
          <mxGeometry width="50" height="50" relative="1" as="geometry">
            <mxPoint x="350" y="130" as="sourcePoint" />
            <mxPoint x="490" y="240" as="targetPoint" />
          </mxGeometry>
        </mxCell>
        <mxCell id="D-RA_q1G5jw-01Rus7TT-8" value="" style="endArrow=none;html=1;rounded=0;exitX=0.5;exitY=1;exitDx=0;exitDy=0;" parent="1" source="D-RA_q1G5jw-01Rus7TT-9" target="D-RA_q1G5jw-01Rus7TT-1" edge="1">
          <mxGeometry width="50" height="50" relative="1" as="geometry">
            <mxPoint x="270" y="130" as="sourcePoint" />
            <mxPoint x="490" y="240" as="targetPoint" />
          </mxGeometry>
        </mxCell>
        <mxCell id="D-RA_q1G5jw-01Rus7TT-9" value="Distribuye" style="shape=rhombus;perimeter=rhombusPerimeter;whiteSpace=wrap;html=1;align=center;" parent="1" vertex="1">
          <mxGeometry x="350" y="-20" width="120" height="60" as="geometry" />
        </mxCell>
        <mxCell id="D-RA_q1G5jw-01Rus7TT-10" value="Generan" style="shape=rhombus;perimeter=rhombusPerimeter;whiteSpace=wrap;html=1;align=center;" parent="1" vertex="1">
          <mxGeometry x="350" y="470" width="120" height="60" as="geometry" />
        </mxCell>
        <mxCell id="D-RA_q1G5jw-01Rus7TT-11" value="" style="endArrow=none;html=1;rounded=0;" parent="1" source="D-RA_q1G5jw-01Rus7TT-20" target="D-RA_q1G5jw-01Rus7TT-10" edge="1">
          <mxGeometry relative="1" as="geometry">
            <mxPoint x="410" y="350" as="sourcePoint" />
            <mxPoint x="570" y="350" as="targetPoint" />
          </mxGeometry>
        </mxCell>
        <mxCell id="D-RA_q1G5jw-01Rus7TT-12" value="" style="endArrow=none;html=1;rounded=0;entryX=1;entryY=0.5;entryDx=0;entryDy=0;" parent="1" source="D-RA_q1G5jw-01Rus7TT-4" target="D-RA_q1G5jw-01Rus7TT-10" edge="1">
          <mxGeometry relative="1" as="geometry">
            <mxPoint x="410" y="350" as="sourcePoint" />
            <mxPoint x="570" y="350" as="targetPoint" />
          </mxGeometry>
        </mxCell>
        <mxCell id="D-RA_q1G5jw-01Rus7TT-13" value="Obtiene" style="shape=rhombus;perimeter=rhombusPerimeter;whiteSpace=wrap;html=1;align=center;rotation=0;" parent="1" vertex="1">
          <mxGeometry x="190" y="320" width="120" height="60" as="geometry" />
        </mxCell>
        <mxCell id="D-RA_q1G5jw-01Rus7TT-14" value="" style="endArrow=none;html=1;rounded=0;entryX=0.5;entryY=0;entryDx=0;entryDy=0;exitX=0.5;exitY=1;exitDx=0;exitDy=0;" parent="1" source="D-RA_q1G5jw-01Rus7TT-22" target="D-RA_q1G5jw-01Rus7TT-20" edge="1">
          <mxGeometry relative="1" as="geometry">
            <mxPoint x="420" y="280" as="sourcePoint" />
            <mxPoint x="230" y="210" as="targetPoint" />
          </mxGeometry>
        </mxCell>
        <mxCell id="D-RA_q1G5jw-01Rus7TT-15" value="" style="endArrow=none;html=1;rounded=0;entryX=0;entryY=0.5;entryDx=0;entryDy=0;" parent="1" source="D-RA_q1G5jw-01Rus7TT-2" target="D-RA_q1G5jw-01Rus7TT-13" edge="1">
          <mxGeometry relative="1" as="geometry">
            <mxPoint x="390" y="260" as="sourcePoint" />
            <mxPoint x="550" y="260" as="targetPoint" />
          </mxGeometry>
        </mxCell>
        <mxCell id="D-RA_q1G5jw-01Rus7TT-16" value="Trabaja" style="shape=rhombus;perimeter=rhombusPerimeter;whiteSpace=wrap;html=1;align=center;" parent="1" vertex="1">
          <mxGeometry x="580" y="310" width="60" height="60" as="geometry" />
        </mxCell>
        <mxCell id="D-RA_q1G5jw-01Rus7TT-17" value="" style="endArrow=none;html=1;rounded=0;entryX=0.5;entryY=0;entryDx=0;entryDy=0;" parent="1" source="D-RA_q1G5jw-01Rus7TT-3" target="D-RA_q1G5jw-01Rus7TT-16" edge="1">
          <mxGeometry relative="1" as="geometry">
            <mxPoint x="390" y="340" as="sourcePoint" />
            <mxPoint x="550" y="340" as="targetPoint" />
          </mxGeometry>
        </mxCell>
        <mxCell id="D-RA_q1G5jw-01Rus7TT-18" value="" style="endArrow=none;html=1;rounded=0;entryX=0.5;entryY=1;entryDx=0;entryDy=0;" parent="1" source="D-RA_q1G5jw-01Rus7TT-4" target="D-RA_q1G5jw-01Rus7TT-16" edge="1">
          <mxGeometry relative="1" as="geometry">
            <mxPoint x="390" y="340" as="sourcePoint" />
            <mxPoint x="550" y="340" as="targetPoint" />
          </mxGeometry>
        </mxCell>
        <mxCell id="D-RA_q1G5jw-01Rus7TT-19" value="1:1" style="text;html=1;strokeColor=none;fillColor=none;align=center;verticalAlign=middle;whiteSpace=wrap;rounded=0;rotation=0;" parent="1" vertex="1">
          <mxGeometry x="220" y="290" width="60" height="20" as="geometry" />
        </mxCell>
        <mxCell id="D-RA_q1G5jw-01Rus7TT-20" value="Facturas" style="rounded=0;whiteSpace=wrap;html=1;" parent="1" vertex="1">
          <mxGeometry x="350" y="320" width="120" height="60" as="geometry" />
        </mxCell>
        <mxCell id="D-RA_q1G5jw-01Rus7TT-21" value="" style="endArrow=none;html=1;rounded=0;exitX=1;exitY=0.5;exitDx=0;exitDy=0;" parent="1" source="D-RA_q1G5jw-01Rus7TT-13" target="D-RA_q1G5jw-01Rus7TT-20" edge="1">
          <mxGeometry width="50" height="50" relative="1" as="geometry">
            <mxPoint x="440" y="370" as="sourcePoint" />
            <mxPoint x="490" y="320" as="targetPoint" />
          </mxGeometry>
        </mxCell>
        <mxCell id="D-RA_q1G5jw-01Rus7TT-22" value="Tiene" style="shape=rhombus;perimeter=rhombusPerimeter;whiteSpace=wrap;html=1;align=center;" parent="1" vertex="1">
          <mxGeometry x="350" y="200" width="120" height="60" as="geometry" />
        </mxCell>
        <mxCell id="D-RA_q1G5jw-01Rus7TT-23" value="" style="endArrow=none;html=1;rounded=0;exitX=0.5;exitY=0;exitDx=0;exitDy=0;" parent="1" source="D-RA_q1G5jw-01Rus7TT-22" target="D-RA_q1G5jw-01Rus7TT-1" edge="1">
          <mxGeometry width="50" height="50" relative="1" as="geometry">
            <mxPoint x="440" y="280" as="sourcePoint" />
            <mxPoint x="490" y="230" as="targetPoint" />
          </mxGeometry>
        </mxCell>
        <mxCell id="D-RA_q1G5jw-01Rus7TT-24" value="1:1" style="text;html=1;strokeColor=none;fillColor=none;align=center;verticalAlign=middle;whiteSpace=wrap;rounded=0;rotation=30;" parent="1" vertex="1">
          <mxGeometry x="420" y="450" width="60" height="30" as="geometry" />
        </mxCell>
        <mxCell id="D-RA_q1G5jw-01Rus7TT-26" value="1:N" style="text;html=1;strokeColor=none;fillColor=none;align=center;verticalAlign=middle;whiteSpace=wrap;rounded=0;rotation=90;" parent="1" vertex="1">
          <mxGeometry x="630" y="325" width="60" height="30" as="geometry" />
        </mxCell>
        <mxCell id="D-RA_q1G5jw-01Rus7TT-27" value="1:N" style="text;html=1;strokeColor=none;fillColor=none;align=center;verticalAlign=middle;whiteSpace=wrap;rounded=0;rotation=-90;" parent="1" vertex="1">
          <mxGeometry x="300" y="215" width="60" height="30" as="geometry" />
        </mxCell>
        <mxCell id="D-RA_q1G5jw-01Rus7TT-28" value="N:N" style="text;html=1;strokeColor=none;fillColor=none;align=center;verticalAlign=middle;whiteSpace=wrap;rounded=0;rotation=-90;" parent="1" vertex="1">
          <mxGeometry x="300" y="-5" width="60" height="30" as="geometry" />
        </mxCell>
        <mxCell id="D-RA_q1G5jw-01Rus7TT-29" value="id" style="ellipse;whiteSpace=wrap;html=1;" parent="1" vertex="1">
          <mxGeometry x="595" y="560" width="30" height="30" as="geometry" />
        </mxCell>
        <mxCell id="D-RA_q1G5jw-01Rus7TT-30" value="id" style="ellipse;whiteSpace=wrap;html=1;" parent="1" vertex="1">
          <mxGeometry x="595" y="90" width="30" height="30" as="geometry" />
        </mxCell>
        <mxCell id="D-RA_q1G5jw-01Rus7TT-31" value="" style="endArrow=none;html=1;rounded=0;" parent="1" source="D-RA_q1G5jw-01Rus7TT-29" target="D-RA_q1G5jw-01Rus7TT-4" edge="1">
          <mxGeometry width="50" height="50" relative="1" as="geometry">
            <mxPoint x="440" y="360" as="sourcePoint" />
            <mxPoint x="490" y="310" as="targetPoint" />
          </mxGeometry>
        </mxCell>
        <mxCell id="D-RA_q1G5jw-01Rus7TT-32" value="" style="endArrow=none;html=1;rounded=0;" parent="1" source="D-RA_q1G5jw-01Rus7TT-3" target="D-RA_q1G5jw-01Rus7TT-30" edge="1">
          <mxGeometry width="50" height="50" relative="1" as="geometry">
            <mxPoint x="440" y="360" as="sourcePoint" />
            <mxPoint x="490" y="310" as="targetPoint" />
          </mxGeometry>
        </mxCell>
        <mxCell id="D-RA_q1G5jw-01Rus7TT-33" value="N. Factura" style="ellipse;whiteSpace=wrap;html=1;" parent="1" vertex="1">
          <mxGeometry x="300" y="400" width="70" height="30" as="geometry" />
        </mxCell>
        <mxCell id="D-RA_q1G5jw-01Rus7TT-34" value="" style="endArrow=none;html=1;rounded=0;" parent="1" source="D-RA_q1G5jw-01Rus7TT-20" target="D-RA_q1G5jw-01Rus7TT-33" edge="1">
          <mxGeometry width="50" height="50" relative="1" as="geometry">
            <mxPoint x="440" y="360" as="sourcePoint" />
            <mxPoint x="490" y="310" as="targetPoint" />
          </mxGeometry>
        </mxCell>
        <mxCell id="D-RA_q1G5jw-01Rus7TT-35" value="cc" style="ellipse;whiteSpace=wrap;html=1;aspect=fixed;" parent="1" vertex="1">
          <mxGeometry x="85" y="245" width="30" height="30" as="geometry" />
        </mxCell>
        <mxCell id="D-RA_q1G5jw-01Rus7TT-36" value="" style="endArrow=none;html=1;rounded=0;" parent="1" source="D-RA_q1G5jw-01Rus7TT-2" target="D-RA_q1G5jw-01Rus7TT-35" edge="1">
          <mxGeometry width="50" height="50" relative="1" as="geometry">
            <mxPoint x="440" y="360" as="sourcePoint" />
            <mxPoint x="490" y="310" as="targetPoint" />
          </mxGeometry>
        </mxCell>
        <mxCell id="D-RA_q1G5jw-01Rus7TT-37" value="ISBN" style="ellipse;whiteSpace=wrap;html=1;" parent="1" vertex="1">
          <mxGeometry x="320" y="50" width="50" height="30" as="geometry" />
        </mxCell>
        <mxCell id="D-RA_q1G5jw-01Rus7TT-38" value="" style="endArrow=none;html=1;rounded=0;" parent="1" source="D-RA_q1G5jw-01Rus7TT-1" target="D-RA_q1G5jw-01Rus7TT-37" edge="1">
          <mxGeometry width="50" height="50" relative="1" as="geometry">
            <mxPoint x="440" y="200" as="sourcePoint" />
            <mxPoint x="490" y="150" as="targetPoint" />
          </mxGeometry>
        </mxCell>
        <mxCell id="D-RA_q1G5jw-01Rus7TT-39" value="id" style="ellipse;whiteSpace=wrap;html=1;" parent="1" vertex="1">
          <mxGeometry x="395" y="-190" width="30" height="30" as="geometry" />
        </mxCell>
        <mxCell id="D-RA_q1G5jw-01Rus7TT-40" value="" style="endArrow=none;html=1;rounded=0;" parent="1" source="D-RA_q1G5jw-01Rus7TT-5" target="D-RA_q1G5jw-01Rus7TT-39" edge="1">
          <mxGeometry width="50" height="50" relative="1" as="geometry">
            <mxPoint x="440" y="120" as="sourcePoint" />
            <mxPoint x="490" y="70" as="targetPoint" />
          </mxGeometry>
        </mxCell>
        <mxCell id="D-RA_q1G5jw-01Rus7TT-41" value="email" style="ellipse;whiteSpace=wrap;html=1;" parent="1" vertex="1">
          <mxGeometry x="510" y="550" width="40" height="40" as="geometry" />
        </mxCell>
        <mxCell id="D-RA_q1G5jw-01Rus7TT-42" value="cel" style="ellipse;whiteSpace=wrap;html=1;" parent="1" vertex="1">
          <mxGeometry x="680" y="552.5" width="50" height="35" as="geometry" />
        </mxCell>
        <mxCell id="D-RA_q1G5jw-01Rus7TT-43" value="nombre" style="ellipse;whiteSpace=wrap;html=1;" parent="1" vertex="1">
          <mxGeometry x="707" y="500" width="53" height="40" as="geometry" />
        </mxCell>
        <mxCell id="D-RA_q1G5jw-01Rus7TT-44" value="rol" style="ellipse;whiteSpace=wrap;html=1;" parent="1" vertex="1">
          <mxGeometry x="710" y="430" width="50" height="30" as="geometry" />
        </mxCell>
        <mxCell id="D-RA_q1G5jw-01Rus7TT-45" value="" style="endArrow=none;html=1;rounded=0;" parent="1" source="D-RA_q1G5jw-01Rus7TT-4" target="D-RA_q1G5jw-01Rus7TT-44" edge="1">
          <mxGeometry width="50" height="50" relative="1" as="geometry">
            <mxPoint x="440" y="520" as="sourcePoint" />
            <mxPoint x="490" y="470" as="targetPoint" />
          </mxGeometry>
        </mxCell>
        <mxCell id="D-RA_q1G5jw-01Rus7TT-46" value="" style="endArrow=none;html=1;rounded=0;" parent="1" source="D-RA_q1G5jw-01Rus7TT-4" target="D-RA_q1G5jw-01Rus7TT-43" edge="1">
          <mxGeometry width="50" height="50" relative="1" as="geometry">
            <mxPoint x="440" y="520" as="sourcePoint" />
            <mxPoint x="490" y="470" as="targetPoint" />
          </mxGeometry>
        </mxCell>
        <mxCell id="D-RA_q1G5jw-01Rus7TT-47" value="" style="endArrow=none;html=1;rounded=0;" parent="1" source="D-RA_q1G5jw-01Rus7TT-41" target="D-RA_q1G5jw-01Rus7TT-4" edge="1">
          <mxGeometry width="50" height="50" relative="1" as="geometry">
            <mxPoint x="440" y="520" as="sourcePoint" />
            <mxPoint x="490" y="470" as="targetPoint" />
          </mxGeometry>
        </mxCell>
        <mxCell id="D-RA_q1G5jw-01Rus7TT-48" value="" style="endArrow=none;html=1;rounded=0;" parent="1" source="D-RA_q1G5jw-01Rus7TT-4" target="D-RA_q1G5jw-01Rus7TT-42" edge="1">
          <mxGeometry width="50" height="50" relative="1" as="geometry">
            <mxPoint x="440" y="520" as="sourcePoint" />
            <mxPoint x="490" y="470" as="targetPoint" />
          </mxGeometry>
        </mxCell>
        <mxCell id="D-RA_q1G5jw-01Rus7TT-49" value="email" style="ellipse;whiteSpace=wrap;html=1;" parent="1" vertex="1">
          <mxGeometry x="10" y="270" width="40" height="35" as="geometry" />
        </mxCell>
        <mxCell id="D-RA_q1G5jw-01Rus7TT-51" value="cel" style="ellipse;whiteSpace=wrap;html=1;" parent="1" vertex="1">
          <mxGeometry x="-10" y="335" width="30" height="30" as="geometry" />
        </mxCell>
        <mxCell id="D-RA_q1G5jw-01Rus7TT-52" value="direcciÃ³n" style="ellipse;whiteSpace=wrap;html=1;" parent="1" vertex="1">
          <mxGeometry x="100" y="397.5" width="60" height="40" as="geometry" />
        </mxCell>
        <mxCell id="D-RA_q1G5jw-01Rus7TT-53" value="" style="endArrow=none;html=1;rounded=0;" parent="1" source="D-RA_q1G5jw-01Rus7TT-52" target="D-RA_q1G5jw-01Rus7TT-2" edge="1">
          <mxGeometry width="50" height="50" relative="1" as="geometry">
            <mxPoint x="440" y="520" as="sourcePoint" />
            <mxPoint x="490" y="470" as="targetPoint" />
          </mxGeometry>
        </mxCell>
        <mxCell id="D-RA_q1G5jw-01Rus7TT-54" value="" style="endArrow=none;html=1;rounded=0;" parent="1" source="D-RA_q1G5jw-01Rus7TT-51" target="D-RA_q1G5jw-01Rus7TT-2" edge="1">
          <mxGeometry width="50" height="50" relative="1" as="geometry">
            <mxPoint x="440" y="520" as="sourcePoint" />
            <mxPoint x="490" y="470" as="targetPoint" />
          </mxGeometry>
        </mxCell>
        <mxCell id="D-RA_q1G5jw-01Rus7TT-55" value="" style="endArrow=none;html=1;rounded=0;" parent="1" source="D-RA_q1G5jw-01Rus7TT-2" target="D-RA_q1G5jw-01Rus7TT-49" edge="1">
          <mxGeometry width="50" height="50" relative="1" as="geometry">
            <mxPoint x="440" y="520" as="sourcePoint" />
            <mxPoint x="490" y="470" as="targetPoint" />
          </mxGeometry>
        </mxCell>
        <mxCell id="D-RA_q1G5jw-01Rus7TT-57" value="Fecha de nacimiento" style="ellipse;whiteSpace=wrap;html=1;" parent="1" vertex="1">
          <mxGeometry x="-60" y="392.5" width="130" height="45" as="geometry" />
        </mxCell>
        <mxCell id="D-RA_q1G5jw-01Rus7TT-58" value="" style="endArrow=none;html=1;rounded=0;" parent="1" source="D-RA_q1G5jw-01Rus7TT-57" target="D-RA_q1G5jw-01Rus7TT-2" edge="1">
          <mxGeometry width="50" height="50" relative="1" as="geometry">
            <mxPoint x="440" y="520" as="sourcePoint" />
            <mxPoint x="490" y="470" as="targetPoint" />
          </mxGeometry>
        </mxCell>
        <mxCell id="IvsJYoFvJ2GixcBz4Me7-1" value="DirecciÃ³n" style="ellipse;whiteSpace=wrap;html=1;" parent="1" vertex="1">
          <mxGeometry x="670" y="125" width="70" height="25" as="geometry" />
        </mxCell>
        <mxCell id="IvsJYoFvJ2GixcBz4Me7-2" value="Telefono" style="ellipse;whiteSpace=wrap;html=1;" parent="1" vertex="1">
          <mxGeometry x="690" y="200" width="70" height="25" as="geometry" />
        </mxCell>
        <mxCell id="IvsJYoFvJ2GixcBz4Me7-3" value="Titulo" style="ellipse;whiteSpace=wrap;html=1;" parent="1" vertex="1">
          <mxGeometry x="280" y="130" width="50" height="30" as="geometry" />
        </mxCell>
        <mxCell id="IvsJYoFvJ2GixcBz4Me7-4" value="Autor" style="ellipse;whiteSpace=wrap;html=1;" parent="1" vertex="1">
          <mxGeometry x="430" y="160" width="50" height="30" as="geometry" />
        </mxCell>
        <mxCell id="IvsJYoFvJ2GixcBz4Me7-5" value="Genero" style="ellipse;whiteSpace=wrap;html=1;" parent="1" vertex="1">
          <mxGeometry x="460" y="40" width="50" height="30" as="geometry" />
        </mxCell>
        <mxCell id="IvsJYoFvJ2GixcBz4Me7-6" value="" style="endArrow=none;html=1;rounded=0;" parent="1" source="IvsJYoFvJ2GixcBz4Me7-4" target="D-RA_q1G5jw-01Rus7TT-1" edge="1">
          <mxGeometry width="50" height="50" relative="1" as="geometry">
            <mxPoint x="520" y="150" as="sourcePoint" />
            <mxPoint x="570" y="100" as="targetPoint" />
          </mxGeometry>
        </mxCell>
        <mxCell id="IvsJYoFvJ2GixcBz4Me7-7" value="" style="endArrow=none;html=1;rounded=0;" parent="1" source="D-RA_q1G5jw-01Rus7TT-1" target="IvsJYoFvJ2GixcBz4Me7-5" edge="1">
          <mxGeometry width="50" height="50" relative="1" as="geometry">
            <mxPoint x="520" y="150" as="sourcePoint" />
            <mxPoint x="570" y="100" as="targetPoint" />
          </mxGeometry>
        </mxCell>
        <mxCell id="IvsJYoFvJ2GixcBz4Me7-8" value="" style="endArrow=none;html=1;rounded=0;" parent="1" source="IvsJYoFvJ2GixcBz4Me7-3" target="D-RA_q1G5jw-01Rus7TT-1" edge="1">
          <mxGeometry width="50" height="50" relative="1" as="geometry">
            <mxPoint x="520" y="150" as="sourcePoint" />
            <mxPoint x="570" y="100" as="targetPoint" />
          </mxGeometry>
        </mxCell>
        <mxCell id="IvsJYoFvJ2GixcBz4Me7-9" value="" style="endArrow=none;html=1;rounded=0;" parent="1" source="D-RA_q1G5jw-01Rus7TT-3" target="IvsJYoFvJ2GixcBz4Me7-1" edge="1">
          <mxGeometry width="50" height="50" relative="1" as="geometry">
            <mxPoint x="520" y="200" as="sourcePoint" />
            <mxPoint x="570" y="150" as="targetPoint" />
          </mxGeometry>
        </mxCell>
        <mxCell id="IvsJYoFvJ2GixcBz4Me7-10" value="" style="endArrow=none;html=1;rounded=0;" parent="1" source="D-RA_q1G5jw-01Rus7TT-3" target="IvsJYoFvJ2GixcBz4Me7-2" edge="1">
          <mxGeometry width="50" height="50" relative="1" as="geometry">
            <mxPoint x="520" y="200" as="sourcePoint" />
            <mxPoint x="570" y="150" as="targetPoint" />
          </mxGeometry>
        </mxCell>
        <mxCell id="IvsJYoFvJ2GixcBz4Me7-11" value="Fecha" style="ellipse;whiteSpace=wrap;html=1;" parent="1" vertex="1">
          <mxGeometry x="470" y="397.5" width="70" height="30" as="geometry" />
        </mxCell>
        <mxCell id="IvsJYoFvJ2GixcBz4Me7-12" value="Hora" style="ellipse;whiteSpace=wrap;html=1;" parent="1" vertex="1">
          <mxGeometry x="480" y="295" width="70" height="30" as="geometry" />
        </mxCell>
        <mxCell id="IvsJYoFvJ2GixcBz4Me7-13" value="" style="endArrow=none;html=1;rounded=0;" parent="1" source="IvsJYoFvJ2GixcBz4Me7-12" target="D-RA_q1G5jw-01Rus7TT-20" edge="1">
          <mxGeometry width="50" height="50" relative="1" as="geometry">
            <mxPoint x="520" y="310" as="sourcePoint" />
            <mxPoint x="570" y="260" as="targetPoint" />
          </mxGeometry>
        </mxCell>
        <mxCell id="IvsJYoFvJ2GixcBz4Me7-14" value="" style="endArrow=none;html=1;rounded=0;" parent="1" source="D-RA_q1G5jw-01Rus7TT-20" target="IvsJYoFvJ2GixcBz4Me7-11" edge="1">
          <mxGeometry width="50" height="50" relative="1" as="geometry">
            <mxPoint x="520" y="370" as="sourcePoint" />
            <mxPoint x="570" y="320" as="targetPoint" />
          </mxGeometry>
        </mxCell>
        <mxCell id="IvsJYoFvJ2GixcBz4Me7-15" value="nombre" style="ellipse;whiteSpace=wrap;html=1;" parent="1" vertex="1">
          <mxGeometry x="260" y="-120" width="50" height="30" as="geometry" />
        </mxCell>
        <mxCell id="IvsJYoFvJ2GixcBz4Me7-16" value="NIT" style="ellipse;whiteSpace=wrap;html=1;" parent="1" vertex="1">
          <mxGeometry x="505" y="-115" width="50" height="30" as="geometry" />
        </mxCell>
        <mxCell id="IvsJYoFvJ2GixcBz4Me7-17" value="" style="endArrow=none;html=1;rounded=0;" parent="1" source="D-RA_q1G5jw-01Rus7TT-5" target="IvsJYoFvJ2GixcBz4Me7-16" edge="1">
          <mxGeometry width="50" height="50" relative="1" as="geometry">
            <mxPoint x="520" y="40" as="sourcePoint" />
            <mxPoint x="570" y="-10" as="targetPoint" />
          </mxGeometry>
        </mxCell>
        <mxCell id="IvsJYoFvJ2GixcBz4Me7-18" value="" style="endArrow=none;html=1;rounded=0;" parent="1" source="IvsJYoFvJ2GixcBz4Me7-15" target="D-RA_q1G5jw-01Rus7TT-5" edge="1">
          <mxGeometry width="50" height="50" relative="1" as="geometry">
            <mxPoint x="520" y="40" as="sourcePoint" />
            <mxPoint x="570" y="-10" as="targetPoint" />
          </mxGeometry>
        </mxCell>
        <mxCell id="buB4J1Q0feXHQOtP-gq1-1" value="Nombre" style="ellipse;whiteSpace=wrap;html=1;aspect=fixed;" vertex="1" parent="1">
          <mxGeometry x="140" y="235" width="50" height="50" as="geometry" />
        </mxCell>
        <mxCell id="buB4J1Q0feXHQOtP-gq1-2" value="" style="endArrow=none;html=1;rounded=0;" edge="1" parent="1" source="D-RA_q1G5jw-01Rus7TT-2" target="buB4J1Q0feXHQOtP-gq1-1">
          <mxGeometry width="50" height="50" relative="1" as="geometry">
            <mxPoint x="110" y="330" as="sourcePoint" />
            <mxPoint x="110" y="285" as="targetPoint" />
          </mxGeometry>
        </mxCell>
      </root>
    </mxGraphModel>
  </diagram>
</mxfile>
